<svg width="146" height="103" viewBox="0 0 146 103" fill="none" xmlns="http://www.w3.org/2000/svg">
<path d="M87 31.5C87 39.942 85.2033 47.4856 82.3956 52.8458C79.5382 58.3008 75.9394 61 72.5 61C69.0606 61 65.4618 58.3008 62.6044 52.8458C59.7967 47.4856 58 39.942 58 31.5C58 23.058 59.7967 15.5144 62.6044 10.1542C65.4618 4.69921 69.0606 2 72.5 2C75.9394 2 79.5382 4.69921 82.3956 10.1542C85.2033 15.5144 87 23.058 87 31.5Z" stroke="white" stroke-width="4"/>
<path d="M72 18C63.987 18 56.8316 19.7906 51.7506 22.5852C46.5977 25.4193 44 29.0101 44 32.5C44 35.9899 46.5977 39.5807 51.7506 42.4148C56.8316 45.2094 63.987 47 72 47C80.013 47 87.1684 45.2094 92.2494 42.4148C97.4023 39.5807 100 35.9899 100 32.5C100 29.0101 97.4023 25.4193 92.2494 22.5852C87.1684 19.7906 80.013 18 72 18Z" stroke="white" stroke-width="4"/>
<g filter="url(#filter0_d_1_26)">
<path d="M100 31.5C100 47.8855 87.3731 61 72 61C56.6269 61 44 47.8855 44 31.5C44 15.1145 56.6269 2 72 2C87.3731 2 100 15.1145 100 31.5Z" stroke="white" stroke-width="4" shape-rendering="crispEdges"/>
</g>
<circle cx="72.5" cy="32.5" r="3.5" fill="#5B50FF"/>
<path d="M9.864 98.36C8.2 98.36 6.704 97.984 5.376 97.232C4.064 96.48 3.032 95.44 2.28 94.112C1.544 92.784 1.176 91.28 1.176 89.6C1.176 87.92 1.544 86.416 2.28 85.088C3.032 83.76 4.064 82.72 5.376 81.968C6.704 81.216 8.2 80.84 9.864 80.84C11.32 80.84 12.648 81.152 13.848 81.776C15.064 82.384 16.04 83.24 16.776 84.344C17.528 85.448 17.96 86.688 18.072 88.064H14.184C14.04 87.36 13.76 86.752 13.344 86.24C12.944 85.712 12.44 85.304 11.832 85.016C11.24 84.728 10.568 84.584 9.816 84.584C8.904 84.584 8.088 84.8 7.368 85.232C6.664 85.664 6.112 86.264 5.712 87.032C5.312 87.784 5.112 88.64 5.112 89.6C5.112 90.56 5.312 91.424 5.712 92.192C6.112 92.944 6.664 93.536 7.368 93.968C8.088 94.384 8.904 94.592 9.816 94.592C10.568 94.592 11.24 94.456 11.832 94.184C12.44 93.896 12.944 93.496 13.344 92.984C13.76 92.456 14.04 91.84 14.184 91.136H18.072C17.96 92.512 17.528 93.752 16.776 94.856C16.04 95.96 15.064 96.824 13.848 97.448C12.648 98.056 11.32 98.36 9.864 98.36ZM26.9992 98.24C25.7512 98.24 24.6232 97.968 23.6152 97.424C22.6232 96.88 21.8392 96.136 21.2632 95.192C20.7032 94.232 20.4232 93.168 20.4232 92C20.4232 90.816 20.7032 89.752 21.2632 88.808C21.8392 87.864 22.6232 87.12 23.6152 86.576C24.6232 86.032 25.7512 85.76 26.9992 85.76C28.2313 85.76 29.3433 86.032 30.3353 86.576C31.3432 87.12 32.1352 87.872 32.7112 88.832C33.2873 89.776 33.5753 90.832 33.5753 92C33.5753 93.168 33.2873 94.232 32.7112 95.192C32.1352 96.136 31.3432 96.88 30.3353 97.424C29.3433 97.968 28.2313 98.24 26.9992 98.24ZM26.9992 95.144C27.5752 95.144 28.1033 95.008 28.5833 94.736C29.0633 94.464 29.4392 94.088 29.7112 93.608C29.9992 93.128 30.1432 92.592 30.1432 92C30.1432 91.408 29.9992 90.872 29.7112 90.392C29.4392 89.912 29.0633 89.536 28.5833 89.264C28.1033 88.976 27.5752 88.832 26.9992 88.832C26.4072 88.832 25.8712 88.976 25.3912 89.264C24.9112 89.536 24.5272 89.912 24.2392 90.392C23.9672 90.872 23.8312 91.408 23.8312 92C23.8312 92.592 23.9672 93.128 24.2392 93.608C24.5272 94.088 24.9112 94.464 25.3912 94.736C25.8712 95.008 26.4072 95.144 26.9992 95.144ZM36.9124 98V86H40.2484V90.152C40.4724 88.824 40.9684 87.76 41.7364 86.96C42.5204 86.16 43.4724 85.76 44.5924 85.76C45.4884 85.76 46.2724 85.984 46.9444 86.432C47.6164 86.88 48.1364 87.52 48.5044 88.352C48.8724 89.168 49.0564 90.12 49.0564 91.208V98H45.6964V91.736C45.6804 90.872 45.4244 90.176 44.9284 89.648C44.4324 89.12 43.7844 88.856 42.9844 88.856C42.4724 88.856 42.0084 88.984 41.5924 89.24C41.1764 89.496 40.8484 89.84 40.6084 90.272C40.3684 90.704 40.2484 91.192 40.2484 91.736V98H36.9124ZM58.6601 98.24C57.4441 98.24 56.3401 97.976 55.3481 97.448C54.3721 96.92 53.5961 96.192 53.0201 95.264C52.4601 94.336 52.1801 93.28 52.1801 92.096C52.1801 90.864 52.4681 89.768 53.0441 88.808C53.6201 87.848 54.4041 87.104 55.3961 86.576C56.3881 86.032 57.4841 85.76 58.6841 85.76C59.8841 85.76 60.9641 86.032 61.9241 86.576C62.9001 87.104 63.6681 87.848 64.2281 88.808C64.7881 89.752 65.0681 90.816 65.0681 92C65.0681 92.032 65.0681 92.072 65.0681 92.12C65.0681 92.168 65.0681 92.208 65.0681 92.24H55.4681C55.5001 92.816 55.6601 93.336 55.9481 93.8C56.2521 94.248 56.6361 94.608 57.1001 94.88C57.5801 95.136 58.1081 95.264 58.6841 95.264C59.2441 95.264 59.7481 95.152 60.1961 94.928C60.6441 94.704 60.9561 94.408 61.1321 94.04H64.7081C64.6281 94.712 64.3241 95.376 63.7961 96.032C63.2841 96.672 62.5801 97.2 61.6841 97.616C60.8041 98.032 59.7961 98.24 58.6601 98.24ZM61.9241 91.76C61.8921 91.184 61.7321 90.672 61.4441 90.224C61.1561 89.76 60.7721 89.4 60.2921 89.144C59.8281 88.872 59.3001 88.736 58.7081 88.736C58.1321 88.736 57.6041 88.872 57.1241 89.144C56.6601 89.4 56.2761 89.76 55.9721 90.224C55.6841 90.672 55.5241 91.184 55.4921 91.76H61.9241ZM73.9057 98.24C72.6737 98.24 71.5617 97.968 70.5697 97.424C69.5937 96.88 68.8257 96.136 68.2657 95.192C67.7057 94.248 67.4257 93.184 67.4257 92C67.4257 90.816 67.7057 89.752 68.2657 88.808C68.8257 87.864 69.5937 87.12 70.5697 86.576C71.5617 86.032 72.6737 85.76 73.9057 85.76C74.9937 85.76 75.9777 85.984 76.8577 86.432C77.7537 86.864 78.4737 87.472 79.0177 88.256C79.5777 89.024 79.9057 89.88 80.0017 90.824H76.6897C76.5137 90.216 76.1777 89.72 75.6817 89.336C75.1857 88.952 74.5937 88.76 73.9057 88.76C73.2977 88.76 72.7537 88.904 72.2737 89.192C71.8097 89.464 71.4417 89.848 71.1697 90.344C70.8977 90.84 70.7617 91.392 70.7617 92C70.7617 92.608 70.8977 93.16 71.1697 93.656C71.4417 94.136 71.8097 94.52 72.2737 94.808C72.7537 95.08 73.2977 95.216 73.9057 95.216C74.5937 95.216 75.1857 95.024 75.6817 94.64C76.1777 94.256 76.5137 93.76 76.6897 93.152H80.0017C79.9057 94.112 79.5777 94.984 79.0177 95.768C78.4737 96.536 77.7537 97.144 76.8577 97.592C75.9777 98.024 74.9937 98.24 73.9057 98.24Z" fill="white"/>
<path d="M88.7295 98.24C87.4975 98.24 86.3855 97.968 85.3935 97.424C84.4175 96.88 83.6495 96.136 83.0895 95.192C82.5295 94.248 82.2495 93.184 82.2495 92C82.2495 90.816 82.5295 89.752 83.0895 88.808C83.6495 87.864 84.4175 87.12 85.3935 86.576C86.3855 86.032 87.4975 85.76 88.7295 85.76C89.8175 85.76 90.8015 85.984 91.6815 86.432C92.5775 86.864 93.2975 87.472 93.8415 88.256C94.4015 89.024 94.7295 89.88 94.8255 90.824H91.5135C91.3375 90.216 91.0015 89.72 90.5055 89.336C90.0095 88.952 89.4175 88.76 88.7295 88.76C88.1215 88.76 87.5775 88.904 87.0975 89.192C86.6335 89.464 86.2655 89.848 85.9935 90.344C85.7215 90.84 85.5855 91.392 85.5855 92C85.5855 92.608 85.7215 93.16 85.9935 93.656C86.2655 94.136 86.6335 94.52 87.0975 94.808C87.5775 95.08 88.1215 95.216 88.7295 95.216C89.4175 95.216 90.0095 95.024 90.5055 94.64C91.0015 94.256 91.3375 93.76 91.5135 93.152H94.8255C94.7295 94.112 94.4015 94.984 93.8415 95.768C93.2975 96.536 92.5775 97.144 91.6815 97.592C90.8015 98.024 89.8175 98.24 88.7295 98.24ZM103.725 98.24C102.157 98.24 100.997 97.904 100.245 97.232C99.4926 96.544 99.1166 95.544 99.1166 94.232V89H96.4046V86H97.9886C98.4846 86 98.8606 85.872 99.1166 85.616C99.3726 85.344 99.5006 84.968 99.5006 84.488V83.12H102.453V86H106.773V89H102.453V93.392C102.453 94.016 102.613 94.464 102.933 94.736C103.253 95.008 103.773 95.144 104.493 95.144C105.133 95.144 105.893 95.072 106.773 94.928V97.928C106.293 98.008 105.773 98.08 105.213 98.144C104.653 98.208 104.157 98.24 103.725 98.24ZM110.164 98V86H113.5V98H110.164ZM111.724 84.632L109.732 80.12H113.98L111.964 84.632H111.724ZM120.814 98L116.11 86H119.614L123.022 95.12H123.238L126.646 86H130.102L125.374 98H120.814ZM137.9 98.24C136.684 98.24 135.58 97.976 134.588 97.448C133.612 96.92 132.836 96.192 132.26 95.264C131.7 94.336 131.42 93.28 131.42 92.096C131.42 90.864 131.708 89.768 132.284 88.808C132.86 87.848 133.644 87.104 134.636 86.576C135.628 86.032 136.724 85.76 137.924 85.76C139.124 85.76 140.204 86.032 141.164 86.576C142.14 87.104 142.908 87.848 143.468 88.808C144.028 89.752 144.308 90.816 144.308 92C144.308 92.032 144.308 92.072 144.308 92.12C144.308 92.168 144.308 92.208 144.308 92.24H134.708C134.74 92.816 134.9 93.336 135.188 93.8C135.492 94.248 135.876 94.608 136.34 94.88C136.82 95.136 137.348 95.264 137.924 95.264C138.484 95.264 138.988 95.152 139.436 94.928C139.884 94.704 140.196 94.408 140.372 94.04H143.948C143.868 94.712 143.564 95.376 143.036 96.032C142.524 96.672 141.82 97.2 140.924 97.616C140.044 98.032 139.036 98.24 137.9 98.24ZM141.164 91.76C141.132 91.184 140.972 90.672 140.684 90.224C140.396 89.76 140.012 89.4 139.532 89.144C139.068 88.872 138.54 88.736 137.948 88.736C137.372 88.736 136.844 88.872 136.364 89.144C135.9 89.4 135.516 89.76 135.212 90.224C134.924 90.672 134.764 91.184 134.732 91.76H141.164Z" fill="#5B51FC"/>
<line x1="9.5" y1="80" x2="9.5" y2="75" stroke="#5B51FC"/>
<line x1="9" y1="75.5" x2="89" y2="75.5" stroke="#5B51FC"/>
<path d="M88.5 75V85" stroke="#5B51FC"/>
<line x1="89" y1="85.375" x2="88" y2="85.375" stroke="#5B51FC" stroke-width="0.75"/>
<line x1="10" y1="80.415" x2="9" y2="80.415" stroke="#5B51FC" stroke-width="0.83"/>
<defs>
<filter id="filter0_d_1_26" x="38" y="0" width="68" height="71" filterUnits="userSpaceOnUse" color-interpolation-filters="sRGB">
<feFlood flood-opacity="0" result="BackgroundImageFix"/>
<feColorMatrix in="SourceAlpha" type="matrix" values="0 0 0 0 0 0 0 0 0 0 0 0 0 0 0 0 0 0 127 0" result="hardAlpha"/>
<feOffset dy="4"/>
<feGaussianBlur stdDeviation="2"/>
<feComposite in2="hardAlpha" operator="out"/>
<feColorMatrix type="matrix" values="0 0 0 0 0 0 0 0 0 0 0 0 0 0 0 0 0 0 0.25 0"/>
<feBlend mode="normal" in2="BackgroundImageFix" result="effect1_dropShadow_1_26"/>
<feBlend mode="normal" in="SourceGraphic" in2="effect1_dropShadow_1_26" result="shape"/>
</filter>
</defs>
</svg>
